<?xml version="1.0" encoding="UTF-8" standalone="no"?>
<!-- Generator: Adobe Illustrator 24.1.2, SVG Export Plug-In . SVG Version: 6.00 Build 0)  -->

<svg
   version="1.1"
   x="0px"
   y="0px"
   viewBox="0 0 100 100"
   style="enable-background:new 0 0 100 100;"
   xml:space="preserve"
   id="svg9"
   sodipodi:docname="beaker.svg"
   inkscape:version="1.3 (0e150ed6c4, 2023-07-21)"
   xmlns:inkscape="http://www.inkscape.org/namespaces/inkscape"
   xmlns:sodipodi="http://sodipodi.sourceforge.net/DTD/sodipodi-0.dtd"
   xmlns="http://www.w3.org/2000/svg"
   xmlns:svg="http://www.w3.org/2000/svg"><defs
   id="defs9" /><sodipodi:namedview
   id="namedview9"
   pagecolor="#ffffff"
   bordercolor="#000000"
   borderopacity="0.25"
   inkscape:showpageshadow="2"
   inkscape:pageopacity="0.0"
   inkscape:pagecheckerboard="0"
   inkscape:deskcolor="#d1d1d1"
   inkscape:zoom="4.3027448"
   inkscape:cx="-73.092878"
   inkscape:cy="138.63244"
   inkscape:window-width="3840"
   inkscape:window-height="2054"
   inkscape:window-x="-11"
   inkscape:window-y="-11"
   inkscape:window-maximized="1"
   inkscape:current-layer="svg9" />&#10;<style
   type="text/css"
   id="style1">&#10;	.st0{fill:none;stroke:#FFFFFF;stroke-miterlimit:10;}&#10;	.st1{fill:#B5B5B6;}&#10;	.st2{fill:#5FB5DC;}&#10;	.st3{fill:#F4D050;}&#10;	.st4{fill:#818082;}&#10;</style>&#10;&#10;&#10;&#10;<path
   style="fill:#5fb5dc;fill-opacity:1;stroke:none;stroke-width:0.219968;stroke-linecap:round;stroke-dasharray:none;stroke-opacity:1"
   d="m 29.681095,88.765076 c -3.960963,-0.518664 -7.299938,-3.377879 -8.525889,-7.300846 -0.402885,-1.289209 -0.515666,-2.18298 -0.464221,-3.678884 0.09028,-2.625314 0.405382,-3.440312 3.125826,-8.084952 l 1.21426,-2.073117 0.642561,0.258139 c 4.143135,1.664441 8.424968,2.522259 11.858903,2.375799 4.491199,-0.191555 8.318624,-1.475316 12.985073,-4.355338 3.846836,-2.374177 7.046708,-3.649641 10.526104,-4.195687 1.23516,-0.193843 4.313622,-0.218655 5.521892,-0.0445 2.116271,0.30502 5.430688,1.137306 5.70536,1.432678 0.150398,0.161733 4.931519,8.31638 5.664989,9.662166 0.522331,0.958382 0.911673,1.956645 1.151751,2.953049 0.253021,1.050129 0.314838,3.150303 0.124367,4.22526 -0.845695,4.772824 -4.373782,8.241572 -8.979585,8.828555 -0.953127,0.121471 -39.622917,0.11926 -40.551391,-0.0023 z"
   id="path18" /><g
   id="g10"
   transform="translate(-97.404825,222.80103)"
   style="fill:none;stroke:#000000;stroke-width:2;stroke-dasharray:none"><path
     id="path4-4"
     style="fill:none;stroke:#000000;stroke-width:2;stroke-linecap:round;stroke-dasharray:none"
     d="m 155.70027,-182.42969 19.23614,31.55265 m -19.23614,-57.32025 v 25.76758 m 19.96289,32.94923 c -0.21933,-0.47903 -0.47258,-0.9418 -0.75782,-1.38476 m -9.31054,17.05078 c 0.52672,3.9e-4 1.0528,-0.0368 1.57422,-0.11133 0.52166,-0.0751 1.03729,-0.18737 1.54296,-0.33594 0.50603,-0.14873 1.00078,-0.33345 1.48047,-0.55273 0.47965,-0.21861 0.94307,-0.47121 1.38672,-0.75586 0.44324,-0.28526 0.86554,-0.60183 1.26367,-0.94727 0.39846,-0.34468 0.77181,-0.71737 1.11719,-1.11523 0.34484,-0.39882 0.66075,-0.82178 0.94531,-1.26563 0.28524,-0.44296 0.53849,-0.90573 0.75782,-1.38476 0.21862,-0.47974 0.40268,-0.97449 0.55078,-1.48047 0.14857,-0.50567 0.26083,-1.0213 0.33593,-1.54297 0.0753,-0.52202 0.11313,-1.04875 0.11329,-1.57617 -2.6e-4,-0.52677 -0.0381,-1.05284 -0.11329,-1.57422 -0.0751,-0.52167 -0.18736,-1.0373 -0.33593,-1.54297 -0.1481,-0.50598 -0.33216,-1.00073 -0.55078,-1.48047 m -36.55378,-32.94921 -19.23614,31.55265 m 19.23614,-57.32025 v 25.76758 m -19.96289,32.94923 c 0.21933,-0.47903 0.47258,-0.9418 0.75782,-1.38476 m -0.75782,1.38476 c -0.21862,0.47974 -0.40268,0.97449 -0.55078,1.48047 -0.14857,0.50567 -0.26083,1.0213 -0.33593,1.54297 -0.0752,0.52138 -0.11303,1.04745 -0.11329,1.57422 1.6e-4,0.52742 0.038,1.05415 0.11329,1.57617 0.0751,0.52167 0.18736,1.0373 0.33593,1.54297 0.1481,0.50598 0.33216,1.00073 0.55078,1.48047 0.21933,0.47903 0.47258,0.9418 0.75782,1.38476 0.28456,0.44385 0.60047,0.86681 0.94531,1.26563 0.34538,0.39786 0.71873,0.77055 1.11719,1.11523 0.39813,0.34544 0.82043,0.66201 1.26367,0.94727 0.44365,0.28465 0.90707,0.53725 1.38672,0.75586 0.47969,0.21928 0.97444,0.404 1.48047,0.55273 0.50567,0.14857 1.0213,0.26084 1.54296,0.33594 0.52142,0.0745 1.0475,0.11172 1.57422,0.11133 h 36.37995 m -26.48542,-74.38283 h 16.59089" /></g><path
   style="fill:none;stroke:#000000;stroke-width:2;stroke-linecap:round;stroke-dasharray:none"
   d="m 25.689127,66.641127 c 7.98931,3.339368 15.21019,4.389395 24.08447,-1.033776 8.87428,-5.423172 15.5822,-4.839637 22.28444,-2.661502"
   id="path15"
   sodipodi:nodetypes="csc" /><g
   id="g16"
   transform="translate(-7.838826,135.41495)"
   style="stroke-width:2;stroke-dasharray:none"><path
     style="fill:none;stroke:#000000;stroke-width:2;stroke-linecap:round;stroke-dasharray:none"
     d="m 63.381602,-120.81121 h 6.42859"
     id="path16" /><path
     style="fill:none;stroke:#000000;stroke-width:2;stroke-linecap:round;stroke-dasharray:none"
     d="m 46.031802,-120.81121 h 6.42859"
     id="path16-2" /></g><circle
   style="fill:#ffffff;fill-opacity:1;stroke:none;stroke-width:0.0515086;stroke-linecap:round;stroke-dasharray:none;stroke-opacity:1"
   id="path18-5"
   cx="58.757072"
   cy="82.248138"
   r="1.9751359" /><circle
   style="fill:#ffffff;fill-opacity:1;stroke:none;stroke-width:0.0515086;stroke-linecap:round;stroke-dasharray:none;stroke-opacity:1"
   id="path18-5-6"
   cx="37.727009"
   cy="74.089958"
   r="1.9751359" /><circle
   style="fill:#ffffff;fill-opacity:1;stroke:none;stroke-width:0.0714332;stroke-linecap:round;stroke-dasharray:none;stroke-opacity:1"
   id="path18-5-4"
   cx="63.471367"
   cy="69.274078"
   r="2.7391593" /><circle
   style="fill:#ffffff;fill-opacity:1;stroke:none;stroke-width:0.0714332;stroke-linecap:round;stroke-dasharray:none;stroke-opacity:1"
   id="path18-5-4-5"
   cx="72.440643"
   cy="78.12561"
   r="2.7391593" /><circle
   style="fill:#ffffff;fill-opacity:1;stroke:none;stroke-width:0.0257543;stroke-linecap:round;stroke-dasharray:none;stroke-opacity:1"
   id="path18-5-0"
   cx="35.171021"
   cy="83.23571"
   r="0.9875679" /><circle
   style="fill:#ffffff;fill-opacity:1;stroke:none;stroke-width:0.0257543;stroke-linecap:round;stroke-dasharray:none;stroke-opacity:1"
   id="path18-5-0-2"
   cx="29.069738"
   cy="75.344185"
   r="0.9875679" /><circle
   style="fill:#ffffff;fill-opacity:1;stroke:none;stroke-width:0.0257543;stroke-linecap:round;stroke-dasharray:none;stroke-opacity:1"
   id="path18-5-0-5"
   cx="65.216843"
   cy="77.138046"
   r="0.9875679" /><circle
   style="fill:#ffffff;fill-opacity:1;stroke:none;stroke-width:0.0257543;stroke-linecap:round;stroke-dasharray:none;stroke-opacity:1"
   id="path18-5-0-9"
   cx="50.907692"
   cy="84.223274"
   r="0.9875679" /><circle
   style="fill:#ffffff;fill-opacity:1;stroke:none;stroke-width:0.0257543;stroke-linecap:round;stroke-dasharray:none;stroke-opacity:1"
   id="path18-5-0-3"
   cx="53.672756"
   cy="78.125618"
   r="0.9875679" /><circle
   style="fill:#ffffff;fill-opacity:1;stroke:none;stroke-width:0.0515086;stroke-linecap:round;stroke-dasharray:none;stroke-opacity:1"
   id="path18-5-60"
   cx="53.672756"
   cy="72.114822"
   r="1.9751359" /><circle
   style="fill:#ffffff;fill-opacity:1;stroke:none;stroke-width:0.0515086;stroke-linecap:round;stroke-dasharray:none;stroke-opacity:1"
   id="path18-5-60-8"
   cx="27.39831"
   cy="81.803391"
   r="1.9751359" /><circle
   style="fill:#ffffff;fill-opacity:1;stroke:none;stroke-width:0.0770734;stroke-linecap:round;stroke-dasharray:none;stroke-opacity:1"
   id="path18-5-5"
   cx="46.529758"
   cy="79.292702"
   r="2.9554384" /></svg>
