<?xml version="1.0" standalone="yes"?><!DOCTYPE svg PUBLIC "-//W3C//DTD SVG 1.1//EN" "http://www.w3.org/Graphics/SVG/1.1/DTD/svg11.dtd"[
<!ENTITY E12 'stroke:rgb(169,169,169);fill:none;stroke-linecap:butt;stroke-miterlimit:9;opacity:1;stroke-width:2;stroke-linejoin:miter;'><!ENTITY E1 'stroke:rgb(169,169,169);fill:none;stroke-linecap:butt;stroke-miterlimit:9;opacity:1;stroke-width:1;stroke-linejoin:miter;'><!ENTITY E13 'matrix(1.00 0.00 0.00 1.00 84.00 4.00 ) '><!ENTITY E2 'matrix(1.00 0.00 0.00 1.00 164.00 4.00 ) '><!ENTITY E8 'stroke:rgb(255,255,255);fill:none;stroke-linecap:butt;stroke-miterlimit:9;opacity:1;stroke-width:2;stroke-linejoin:miter;'><!ENTITY E5 'stroke:none;fill-rule:evenodd;opacity:1;fill:rgb(255,255,255);'><!ENTITY E19 'matrix(1.00 0.00 0.00 1.00 4.00 4.00 ) '><!ENTITY E10 'matrix(1.00 0.00 0.00 1.00 0.00 0.00 ) '>
]><svg width="234.1564" height="66.65038" id="SvgGdi_output" xmlns="http://www.w3.org/2000/svg" xmlns:xlink="http://www.w3.org/1999/xlink"><rect id="background" height="100.00%" style="fill:rgb(255,255,255);" width="100.00%" y="0.00" x="0.00" /><g style="shape-rendering:auto;" id="root_group"><line y1="19.00" style="&E1;" id="463" x2="160.00" y2="19.00" x1="118.00" /><line y1="19.00" style="&E1;" id="464" x2="80.00" y2="19.00" x1="38.00" /><ellipse id="465" cy="15.00" cx="15.00" transform="&E2;" rx="15.00" ry="15.00" style="stroke:none;opacity:1;fill:rgb(68,154,223);" /><path style="&E5;" transform="&E2;" id="466" d="M 19.156 13.888 19.156 10.3647 19.156 6.841399 25.2585 10.3647 22.2072 12.1264 z " /><path style="&E5;" transform="&E2;" id="467" d="M 19.156 22.97 19.156 19.4467 19.156 15.9234 25.2585 19.4467 22.2072 21.2084 z " /><path style="&E8;" transform="&E2;" id="468" d="M 5.5001 19.484 10.6493 19.484 16.2743 10.2485 19.3728 10.2485 M 14.6769 17.1481 16.3089 19.4828 19.2202 19.4828 M 5.500199 10.2437 10.7586 10.2437 12.1652 12.8707 " /><text id="469" transform="&E10;" x="164.00px" y="39.00px" style="stroke:none;clip-path:url(#471_text_clipper);font-family:Microsoft Sans Serif;fill:rgb(0,0,0);font-size:8.25pt;opacity:1;"><tspan dy="8.25pt" id="473">PercentUsed</tspan></text><path style="&E12;" transform="&E13;" id="475" d="M 10.158 33.2 C 3.4054 31.7591 -1.861 26.4692 -3.271 19.71 " /><ellipse id="476" cy="15.00" cx="15.00" transform="&E13;" rx="15.00" ry="15.00" style="stroke:none;opacity:1;fill:rgb(155,91,179);" /><path style="&E8;" transform="&E13;" id="477" d="M 7.3965 19.566 7.3965 10.8433 " /><path style="&E8;" transform="&E13;" id="478" d="M 11.085 22.137 14.2178 8.273999 " /><ellipse id="479" cy="15.15" cx="20.49" transform="&E13;" rx="4.18" ry="4.18" style="&E8;" /><text id="480" transform="&E10;" x="84.00px" y="39.00px" style="stroke:none;clip-path:url(#482_text_clipper);font-family:Microsoft Sans Serif;fill:rgb(0,0,0);font-size:8.25pt;opacity:1;"><tspan dy="8.25pt" id="484">CsvWriter</tspan></text><path style="&E12;" transform="&E19;" id="486" d="M 31.179 5.2 C 34.9985 11.0918 34.9814 18.682 31.13552 24.557 " /><ellipse id="487" cy="15.00" cx="15.00" transform="&E19;" rx="15.00" ry="15.00" style="stroke:none;opacity:1;fill:rgb(91,178,126);" /><text id="488" transform="&E10;" x="4.00px" y="39.00px" style="stroke:none;clip-path:url(#490_text_clipper);font-family:Microsoft Sans Serif;fill:rgb(0,0,0);font-size:8.25pt;opacity:1;"><tspan dy="8.25pt" id="492">Memory</tspan></text><text id="494" transform="&E10;" x="4.00px" y="51.45px" style="stroke:none;clip-path:url(#496_text_clipper);font-family:Microsoft Sans Serif;fill:rgb(0,0,0);font-size:8.25pt;opacity:1;"><tspan dy="8.25pt" id="498">MonitorData</tspan></text></g><defs id="clips_hatches_and_gradients"><clipPath id="471_text_clipper"><rect x="164.00" y="39.00" width="69.16" height="13.83" id="472" /></clipPath><clipPath id="482_text_clipper"><rect x="84.00" y="39.00" width="53.45" height="13.83" id="483" /></clipPath><clipPath id="490_text_clipper"><rect x="4.00" y="39.00" width="65.43" height="27.65" id="491" /></clipPath><clipPath id="496_text_clipper"><rect x="4.00" y="51.45" width="65.43" height="27.65" id="497" /></clipPath></defs></svg>