<?xml version="1.0" encoding="UTF-8" standalone="no"?>
<!-- Generator: Adobe Illustrator 25.0.1, SVG Export Plug-In . SVG Version: 6.00 Build 0)  -->

<svg
   version="1.1"
   x="0px"
   y="0px"
   viewBox="0 0 100 100"
   style="enable-background:new 0 0 100 100;"
   xml:space="preserve"
   id="svg7"
   sodipodi:docname="screwdriver.svg"
   inkscape:version="1.3 (0e150ed6c4, 2023-07-21)"
   xmlns:inkscape="http://www.inkscape.org/namespaces/inkscape"
   xmlns:sodipodi="http://sodipodi.sourceforge.net/DTD/sodipodi-0.dtd"
   xmlns="http://www.w3.org/2000/svg"
   xmlns:svg="http://www.w3.org/2000/svg"><defs
   id="defs7">&#10;	&#10;	&#10;&#10;	&#10;	&#10;	&#10;	&#10;	&#10;</defs><sodipodi:namedview
   id="namedview7"
   pagecolor="#ffffff"
   bordercolor="#000000"
   borderopacity="0.25"
   inkscape:showpageshadow="2"
   inkscape:pageopacity="0.0"
   inkscape:pagecheckerboard="0"
   inkscape:deskcolor="#d1d1d1"
   inkscape:zoom="3.6592776"
   inkscape:cx="27.464437"
   inkscape:cy="63.810409"
   inkscape:window-width="2240"
   inkscape:window-height="1294"
   inkscape:window-x="-11"
   inkscape:window-y="-11"
   inkscape:window-maximized="1"
   inkscape:current-layer="svg7" />&#10;<style
   type="text/css"
   id="style1">&#10;	.st0{fill:#DB714B;}&#10;	.st1{fill:#FFFFFF;}&#10;	.st2{fill:#B5B6B6;}&#10;	.st3{fill:#5DB5DE;}&#10;	.st4{fill:#519241;}&#10;	.st5{fill:#F4D151;}&#10;</style>&#10;<g
   id="Layer_3">&#10;	<polygon
   class="st0"
   points="36.1,29.5 30.5,42.3 79.1,89.5 83.1,91 87.2,89.9 90.1,86.6 90.7,82.4 89.2,78.9 51.1,44.2 42.1,35.6    39.1,31.1 37.5,28.5  "
   id="polygon1" />&#10;	<polygon
   class="st1"
   points="82,80.8 80.1,82.1 80.3,84.8 82.9,85.5 84.8,84.1 84.9,82.2 83.7,80.9  "
   id="polygon2" />&#10;</g>&#10;<g
   id="Layer_2">&#10;	<g
   id="g3">&#10;		<g
   id="g2">&#10;			<path
   d="M80.4,85.3c-1.2-1.2-1.2-3.2,0-4.4c1.2-1.2,3.2-1.2,4.4,0c1.2,1.2,1.2,3.2,0,4.4C83.7,86.5,81.6,86.6,80.4,85.3z      M83.8,81.9c-0.7-0.7-1.8-0.7-2.5,0c-0.7,0.7-0.7,1.8,0,2.5s1.8,0.7,2.5,0S84.5,82.6,83.8,81.9z"
   id="path2" />&#10;		</g>&#10;		<path
   d="M89.2,78.1L89.2,78.1L55.3,47.2c0,0-0.6-0.6-1.6-1.4c-5.5-5-8.3-7.5-10.4-10c-2-2.3-3.7-5-5.2-7.9l-0.4-0.8l-0.7,0.7    c-1.4-4.3-2.9-8.6-4.3-12.9c-0.4-1.1-0.9-2-1.5-2.8c-1.4-1.8-4.3-4.6-8.7-5.7C16.4,5,11.6,7.3,10.5,7.8L10,9.4l10.1,3.7l0.8,7.5    L17,23.5L6.2,19.3c-0.3,0.6-0.6,1.3-0.9,2c0.4,1.9,1.4,4.6,3.5,7.6c2.4,3.3,5.1,5.2,6.7,6.2l-1.9,5.4l2.8-0.3l-0.3,1.3l3,0.5    l0.8-2.4l4.5-0.4l5.6,2.2l-0.6,1.2l0.5,0.4c2.8,2.1,5.5,4.4,8.1,6.8c2.2,2,6.8,7.2,7.2,7.5l33.1,32.4l0.1,0.1    c3.2,2.5,7.8,2.1,10.6-0.8C91.8,86.1,91.9,81.2,89.2,78.1z M17.2,40.8v-0.4l1.6-0.2L18.5,41L17.2,40.8z M23.8,34l-0.4-1.3    c-0.1-0.1-0.1-0.3,0.1-0.3l0.9-0.4c0.1-0.1,0.2-0.2,0.1-0.3l-0.4-1c-0.1-0.1,0-0.2,0.1-0.3l1.1-0.5c0.1-0.1,0.2-0.2,0.1-0.3    L24.7,29c-0.1-0.1,0-0.2,0.1-0.3l1.1-0.5c0.1-0.1,0.2-0.2,0.1-0.3l-0.4-0.7c-0.1-0.1,0-0.2,0.1-0.3l1-0.4l4.3,1.9l0.6,1.5    c0.1,0.1,0.1,0.3-0.1,0.3l-0.9,0.4c-0.1,0.1-0.2,0.2-0.1,0.3l0.5,0.9c0.1,0.1,0,0.2-0.1,0.3L30,32.4c-0.1,0.1-0.2,0.2-0.1,0.3    l0.4,0.8c0.1,0.1,0,0.2-0.1,0.3l-1,0.4c-0.1,0.1-0.2,0.2-0.1,0.3l0.4,0.6c0.1,0.1,0,0.2-0.1,0.3l-1.2,0.4L23.8,34z M79.2,88.6    L46.1,56.2c-0.4-0.4-5-5.5-7.2-7.5c-2.5-2.3-5.1-4.5-7.7-6.7l6.1-12.5c1.3,2.6,3,5,4.8,7.1c2.2,2.6,5,5.1,10.5,10.1    c0.9,0.9,1.6,1.4,1.6,1.4l34,31c2.2,2.6,2.2,6.5-0.2,8.9S82,90.6,79.2,88.6z"
   id="path3" />&#10;	</g>&#10;</g>&#10;<polygon
   class="st2"
   points="80.7,12.9 90.1,6.7 93,9.8 86.3,19.2 81.6,21.5 49.2,54.5 45.6,50.5 78.4,18 "
   id="polygon3" /><polygon
   class="st3"
   points="51.4,58.4 50.1,59.8 48.4,59.6 40.8,51.9 40.1,50 40.8,48.7 43.2,48.6 51.2,56.6 "
   id="polygon4"
   style="fill:#ceacca;fill-opacity:1" /><polygon
   class="st4"
   points="35.2,60 29.9,61.1 27.5,62.6 28.2,64.8 27.5,68.2 14.3,81 12,81.4 9.8,80.1 7,84.3 7.7,89.8 11.2,93 15.9,93.1 20,90.4 18.7,87.4 19.8,84.3 33.4,72 37.6,72.7 39.1,69.6 40.3,64.1 43.5,60.2 47.7,58.8 40.8,51.9 39.4,56.6 "
   id="polygon5"
   style="fill:#0e99c9;fill-opacity:1" /><polygon
   class="st5"
   points="18.9,86.1 19.3,89.5 37.6,72.7 36.7,72.2 33.4,72 "
   id="polygon6" /><polygon
   class="st5"
   points="13.7,81.1 10.3,80.7 27.1,62.4 27.7,63.3 27.9,66.7 "
   id="polygon7" />&#10;<path
   d="M 93.5,9.3 90.4,6.2 C 90.1,5.9 89.7,5.9 89.4,6.1 l -9.3,6.5 c -0.1,0.1 -0.2,0.2 -0.2,0.3 l -2.4,4.6 -32,32.1 -1.4,-1.4 c -0.5,-0.5 -1.1,-0.8 -1.9,-0.8 -0.7,0 -1.4,0.3 -1.9,0.8 L 40,48.6 c -0.5,0.5 -0.8,1.1 -0.8,1.9 0,0.7 0.2,1.3 0.7,1.7 -0.2,4.1 -3.6,7.4 -7.7,7.4 0,0 -0.1,0 -0.1,0 -1.9,0.2 -3.7,1 -5.1,2.3 L 8.6,80.4 c -1.5,1.5 -2.4,3.6 -2.4,5.7 0,2.1 0.8,4.2 2.4,5.7 1.5,1.5 3.4,2.2 5.3,2.2 2.1,0 4.1,-0.8 5.8,-2.5 L 38.1,73.1 c 1.4,-1.4 2.2,-3.2 2.3,-5.1 0,0 0,-0.1 0,-0.1 0,-4.3 3.1,-7.9 7.1,-8.1 0.5,0.4 1.1,0.7 1.7,0.7 0.7,0 1.4,-0.3 1.9,-0.8 l 0.4,-0.4 c 1,-1 1,-2.7 0,-3.7 l -1.4,-1.4 32.1,-32.1 4.6,-2.4 c 0.1,-0.1 0.2,-0.1 0.3,-0.2 l 6.5,-9.3 C 93.8,10 93.8,9.6 93.5,9.3 Z M 27.6,65.5 c 0,0.8 -0.3,1.6 -0.9,2.2 l -11.9,12 c -0.6,0.6 -1.4,0.9 -2.2,0.9 -0.6,0 -1.1,-0.2 -1.6,-0.5 L 27.2,63.9 c 0.3,0.5 0.4,1.1 0.4,1.6 z M 20.4,85.3 32.3,73.4 c 1,-1 2.6,-1.2 3.8,-0.5 L 19.9,89.1 c -0.7,-1.2 -0.5,-2.8 0.5,-3.8 z M 38.9,67.8 c -0.1,1.5 -0.7,2.9 -1.7,4 -1.8,-1.3 -4.3,-1.1 -5.9,0.5 l -11.9,12 c -1.6,1.6 -1.8,4.1 -0.5,5.9 l -0.2,0.2 c -2.7,2.7 -6.5,2.8 -9,0.3 -1.2,-1.2 -1.9,-2.9 -1.9,-4.6 0,-1.7 0.7,-3.4 1.9,-4.6 l 0.2,-0.2 c 0.8,0.6 1.7,0.9 2.7,0.9 1.2,0 2.4,-0.5 3.3,-1.4 L 27.8,68.9 c 0.9,-0.9 1.4,-2 1.4,-3.3 0,-1 -0.3,-1.9 -0.9,-2.7 1.1,-1 2.5,-1.6 4,-1.7 v 0 c 4.5,0 8.2,-3.3 9,-7.6 l 4.9,4.9 c -4.1,0.8 -7.2,4.7 -7.3,9.3 z M 50.5,58.3 50,58.7 C 49.8,58.9 49.5,59 49.2,59 48.9,59 48.6,58.9 48.4,58.7 L 41,51.3 c -0.2,-0.2 -0.3,-0.5 -0.3,-0.8 0,-0.3 0.1,-0.6 0.3,-0.8 l 0.4,-0.4 c 0.2,-0.2 0.5,-0.3 0.8,-0.3 0.3,0 0.6,0.1 0.8,0.3 l 7.4,7.4 c 0.5,0.4 0.5,1.1 0.1,1.6 z M 86,18.5 81.5,20.8 c -0.1,0 -0.1,0.1 -0.2,0.1 L 49.1,53.2 46.6,50.7 78.8,18.5 c 0.1,-0.1 0.1,-0.1 0.1,-0.2 L 81.2,13.8 89.8,7.7 92,10 Z"
   id="path7" /><rect
   x="21"
   y="25.1"
   width="11.6"
   height="12.2"
   id="rect7" />&#10;</svg>
