<?xml version="1.0" standalone="yes"?>
<!DOCTYPE svg PUBLIC "-//W3C//DTD SVG 1.1//EN" "http://www.w3.org/Graphics/SVG/1.1/DTD/svg11.dtd"[
<!ENTITY E7 'M 31.179 5.2 C 34.9985 11.0918 34.9814 18.682 31.13552 24.557 '><!ENTITY E14 'matrix(1.00 0.00 0.00 1.00 84.00 4.00 ) '><!ENTITY E8 'stroke:rgb(169,169,169);fill:none;stroke-linecap:butt;stroke-miterlimit:9;opacity:1;stroke-width:2;stroke-linejoin:miter;'><!ENTITY E1 'stroke:rgb(169,169,169);fill:none;stroke-linecap:butt;stroke-miterlimit:9;opacity:1;stroke-width:1;stroke-linejoin:miter;'><!ENTITY E24 'matrix(1.00 0.00 0.00 1.00 4.00 4.00 ) '><!ENTITY E10 'stroke:none;opacity:1;fill:rgb(91,178,126);'><!ENTITY E9 'matrix(1.00 0.00 0.00 1.00 164.00 84.00 ) '><!ENTITY E5 'matrix(1.00 0.00 0.00 1.00 0.00 0.00 ) '><!ENTITY E19 'matrix(1.00 0.00 0.00 1.00 84.00 84.00 ) '>
]>
<svg width="236.0578" height="160.4756" id="SvgGdi_output" xmlns="http://www.w3.org/2000/svg" xmlns:xlink="http://www.w3.org/1999/xlink">
  <style>text { fill: #000; } @media (prefers-color-scheme: dark) { text { fill: #eee; } }</style>
  <rect id="background" height="100.00%" style="fill:none;" width="100.00%" y="0.00" x="0.00" />
  <g style="shape-rendering:auto;" id="root_group">
    <line y1="19.00" style="stroke:rgb(169,169,169);fill:none;stroke-linecap:butt;stroke-miterlimit:9;opacity:1;stroke-width:1;stroke-linejoin:miter;" id="2" x2="160.00" y2="19.00" x1="118.00" />
    <line y1="19.00" style="stroke:rgb(169,169,169);fill:none;stroke-linecap:butt;stroke-miterlimit:9;opacity:1;stroke-width:1;stroke-linejoin:miter;" id="3" x2="80.00" y2="19.00" x1="38.00" />
    <ellipse id="36" cy="15.00" cx="15.00" rx="15.00" ry="15.00" transform="matrix(1.00 0.00 0.00 1.00 164.00 4.00 ) " style="stroke:none;opacity:1;fill:rgb(238,192,75);" />
    <text id="38" transform="matrix(1.00 0.00 0.00 1.00 0.00 0.00 ) " x="164.00px" y="39.00px" style="stroke:none;clip-path:url(#40_text_clipper);font-family:Microsoft Sans Serif;font-size:8.25pt;opacity:1;">
      <tspan dy="8.25pt" id="42">Start</tspan>
    </text>
    <text id="44" transform="matrix(1.00 0.00 0.00 1.00 0.00 0.00 ) " x="164.00px" y="51.45px" style="stroke:none;clip-path:url(#46_text_clipper);font-family:Microsoft Sans Serif;font-size:8.25pt;opacity:1;">
      <tspan dy="8.25pt" id="48">Acquisition</tspan>
    </text>
    <path d="M 31.179 5.2 C 34.9985 11.0918 34.9814 18.682 31.13552 24.557 " style="stroke:rgb(169,169,169);fill:none;stroke-linecap:butt;stroke-miterlimit:9;opacity:1;stroke-width:2;stroke-linejoin:miter;" transform="matrix(1.00 0.00 0.00 1.00 164.00 84.00 ) " id="53" />
    <ellipse id="54" cy="15.00" cx="15.00" transform="matrix(1.00 0.00 0.00 1.00 164.00 84.00 ) " rx="15.00" ry="15.00" style="stroke:none;opacity:1;fill:rgb(91,178,126);" />
    <text id="55" transform="matrix(1.00 0.00 0.00 1.00 0.00 0.00 ) " x="164.00px" y="119.00px" style="stroke:none;clip-path:url(#57_text_clipper);font-family:Microsoft Sans Serif;font-size:8.25pt;opacity:1;">
      <tspan dy="8.25pt" id="59">Neuropixels</tspan>
    </text>
    <text id="61" transform="matrix(1.00 0.00 0.00 1.00 0.00 0.00 ) " x="164.00px" y="131.45px" style="stroke:none;clip-path:url(#63_text_clipper);font-family:Microsoft Sans Serif;font-size:8.25pt;opacity:1;">
      <tspan dy="8.25pt" id="65">V2eBetaData</tspan>
    </text>
    <path style="stroke:rgb(169,169,169);fill:none;stroke-linecap:butt;stroke-miterlimit:9;opacity:1;stroke-width:2;stroke-linejoin:miter;" transform="matrix(1.00 0.00 0.00 1.00 84.00 4.00 ) " id="70" d="M 10.158 33.2 C 3.4054 31.7591 -1.861 26.4692 -3.271 19.71 " />
    <ellipse id="71" cy="15.00" cx="15.00" transform="matrix(1.00 0.00 0.00 1.00 84.00 4.00 ) " rx="15.00" ry="15.00" style="stroke:none;opacity:1;fill:rgb(155,91,179);" />
    <text id="72" transform="matrix(1.00 0.00 0.00 1.00 0.00 0.00 ) " x="84.00px" y="39.00px" style="stroke:none;clip-path:url(#74_text_clipper);font-family:Microsoft Sans Serif;font-size:8.25pt;opacity:1;">
      <tspan dy="8.25pt" id="76">Neuropixels</tspan>
    </text>
    <text id="78" transform="matrix(1.00 0.00 0.00 1.00 0.00 0.00 ) " x="84.00px" y="51.45px" style="stroke:none;clip-path:url(#80_text_clipper);font-family:Microsoft Sans Serif;font-size:8.25pt;opacity:1;">
      <tspan dy="8.25pt" id="82">V2eBeta</tspan>
    </text>
    <text id="84" transform="matrix(1.00 0.00 0.00 1.00 0.00 0.00 ) " x="84.00px" y="63.90px" style="stroke:none;clip-path:url(#86_text_clipper);font-family:Microsoft Sans Serif;font-size:8.25pt;opacity:1;">
      <tspan dy="8.25pt" id="88">Headstage</tspan>
    </text>
    <path d="M 31.179 5.2 C 34.9985 11.0918 34.9814 18.682 31.13552 24.557 " style="stroke:rgb(169,169,169);fill:none;stroke-linecap:butt;stroke-miterlimit:9;opacity:1;stroke-width:2;stroke-linejoin:miter;" transform="matrix(1.00 0.00 0.00 1.00 84.00 84.00 ) " id="90" />
    <ellipse id="91" cy="15.00" cx="15.00" transform="matrix(1.00 0.00 0.00 1.00 84.00 84.00 ) " rx="15.00" ry="15.00" style="stroke:none;opacity:1;fill:rgb(91,178,126);" />
    <ellipse id="92" cy="99.00" cx="84.00" rx="3.00" ry="3.00" style="stroke:rgb(169,169,169);fill:none;stroke-linecap:butt;stroke-miterlimit:9;opacity:1;stroke-width:2;stroke-linejoin:miter;" />
    <ellipse id="93" cy="99.00" cx="84.00" rx="3.00" ry="3.00" style="stroke:none;opacity:1;fill:rgb(255,255,255);" />
    <text id="94" transform="matrix(1.00 0.00 0.00 1.00 0.00 0.00 ) " x="84.00px" y="119.00px" style="stroke:none;clip-path:url(#96_text_clipper);font-family:Microsoft Sans Serif;font-size:8.25pt;opacity:1;">
      <tspan dy="8.25pt" id="98">Neuropixels</tspan>
    </text>
    <text id="100" transform="matrix(1.00 0.00 0.00 1.00 0.00 0.00 ) " x="84.00px" y="131.45px" style="stroke:none;clip-path:url(#102_text_clipper);font-family:Microsoft Sans Serif;font-size:8.25pt;opacity:1;">
      <tspan dy="8.25pt" id="104">V2eBno055</tspan>
    </text>
    <text id="106" transform="matrix(1.00 0.00 0.00 1.00 0.00 0.00 ) " x="84.00px" y="143.90px" style="stroke:none;clip-path:url(#108_text_clipper);font-family:Microsoft Sans Serif;font-size:8.25pt;opacity:1;">
      <tspan dy="8.25pt" id="110">Data</tspan>
    </text>
    <path d="M 31.179 5.2 C 34.9985 11.0918 34.9814 18.682 31.13552 24.557 " style="stroke:rgb(169,169,169);fill:none;stroke-linecap:butt;stroke-miterlimit:9;opacity:1;stroke-width:2;stroke-linejoin:miter;" transform="matrix(1.00 0.00 0.00 1.00 4.00 4.00 ) " id="112" />
    <ellipse id="113" cy="15.00" cx="15.00" transform="matrix(1.00 0.00 0.00 1.00 4.00 4.00 ) " rx="15.00" ry="15.00" style="stroke:none;opacity:1;fill:rgb(91,178,126);" />
    <text id="114" transform="matrix(1.00 0.00 0.00 1.00 0.00 0.00 ) " x="4.00px" y="39.00px" style="stroke:none;clip-path:url(#116_text_clipper);font-family:Microsoft Sans Serif;font-size:8.25pt;opacity:1;">
      <tspan dy="8.25pt" id="118">Create</tspan>
    </text>
    <text id="120" transform="matrix(1.00 0.00 0.00 1.00 0.00 0.00 ) " x="4.00px" y="51.45px" style="stroke:none;clip-path:url(#122_text_clipper);font-family:Microsoft Sans Serif;font-size:8.25pt;opacity:1;">
      <tspan dy="8.25pt" id="124">Context</tspan>
    </text>
  </g>
  <defs id="clips_hatches_and_gradients">
    <clipPath id="40_text_clipper">
      <rect x="164.00" y="39.00" width="58.66" height="27.65" id="41" />
    </clipPath>
    <clipPath id="46_text_clipper">
      <rect x="164.00" y="51.45" width="58.66" height="27.65" id="47" />
    </clipPath>
    <clipPath id="57_text_clipper">
      <rect x="164.00" y="119.00" width="71.06" height="27.65" id="58" />
    </clipPath>
    <clipPath id="63_text_clipper">
      <rect x="164.00" y="131.45" width="71.06" height="27.65" id="64" />
    </clipPath>
    <clipPath id="74_text_clipper">
      <rect x="84.00" y="39.00" width="63.62" height="41.48" id="75" />
    </clipPath>
    <clipPath id="80_text_clipper">
      <rect x="84.00" y="51.45" width="63.62" height="41.48" id="81" />
    </clipPath>
    <clipPath id="86_text_clipper">
      <rect x="84.00" y="63.90" width="63.62" height="41.48" id="87" />
    </clipPath>
    <clipPath id="96_text_clipper">
      <rect x="84.00" y="119.00" width="63.62" height="41.48" id="97" />
    </clipPath>
    <clipPath id="102_text_clipper">
      <rect x="84.00" y="131.45" width="63.62" height="41.48" id="103" />
    </clipPath>
    <clipPath id="108_text_clipper">
      <rect x="84.00" y="143.90" width="63.62" height="41.48" id="109" />
    </clipPath>
    <clipPath id="116_text_clipper">
      <rect x="4.00" y="39.00" width="42.71" height="27.65" id="117" />
    </clipPath>
    <clipPath id="122_text_clipper">
      <rect x="4.00" y="51.45" width="42.71" height="27.65" id="123" />
    </clipPath>
  </defs>
</svg>